<?xml version="1.0" encoding="UTF-8" standalone="no"?>
<!-- Created with Inkscape (http://www.inkscape.org/) -->

<svg
   xmlns:dc="http://purl.org/dc/elements/1.1/"
   xmlns:cc="http://creativecommons.org/ns#"
   xmlns:rdf="http://www.w3.org/1999/02/22-rdf-syntax-ns#"
   xmlns:svg="http://www.w3.org/2000/svg"
   xmlns="http://www.w3.org/2000/svg"
   xmlns:sodipodi="http://sodipodi.sourceforge.net/DTD/sodipodi-0.dtd"
   xmlns:inkscape="http://www.inkscape.org/namespaces/inkscape"
   width="300"
   height="300"
   id="svg2"
   version="1.1"
   inkscape:version="0.48.4 r9939"
   sodipodi:docname="image-seal.svg">
  <defs
     id="defs4" />
  <sodipodi:namedview
     id="base"
     pagecolor="#ffffff"
     bordercolor="#666666"
     borderopacity="1.0"
     inkscape:pageopacity="0.0"
     inkscape:pageshadow="2"
     inkscape:zoom="2.0018437"
     inkscape:cx="232.32812"
     inkscape:cy="141.91078"
     inkscape:document-units="px"
     inkscape:current-layer="layer1"
     showgrid="false"
     inkscape:window-width="1215"
     inkscape:window-height="1000"
     inkscape:window-x="65"
     inkscape:window-y="24"
     inkscape:window-maximized="1"
     fit-margin-top="10"
     fit-margin-left="10"
     fit-margin-right="10"
     fit-margin-bottom="10" />
  <metadata
     id="metadata7">
    <rdf:RDF>
      <cc:Work
         rdf:about="">
        <dc:format>image/svg+xml</dc:format>
        <dc:type
           rdf:resource="http://purl.org/dc/dcmitype/StillImage" />
        <dc:title />
      </cc:Work>
    </rdf:RDF>
  </metadata>
  <g
     inkscape:label="Calque 1"
     inkscape:groupmode="layer"
     id="layer1"
     transform="translate(0,-752.36218)">
    <path
       style="fill:#5F7470"
       d="m 135.54252,1045.6667 c 0.34212,-1.0347 4.3942,-1.93 10.97702,-2.4251 19.11994,-1.4383 27.66093,-3.7777 33.92672,-9.2932 13.01638,-11.4574 16.03648,-27.5375 13.80451,-73.50021 -1.65975,-34.17892 -1.87505,-35.47796 -6.32163,-38.14206 -1.92716,-1.15463 -9.18964,-7.74939 -16.13883,-14.65502 -6.94921,-6.90563 -13.22892,-12.55569 -13.9549,-12.55569 -0.726,0 -2.37757,1.61407 -3.67018,3.58682 -1.29259,1.97277 -3.71517,5.05891 -5.38348,6.85813 -2.72423,2.93796 -3.23812,3.06649 -5.04324,1.26135 -1.80514,-1.80513 -1.10484,-3.06056 6.87278,-12.3208 19.74978,-22.92512 27.58822,-29.56537 34.90026,-29.56537 1.7517,0 3.78344,0.73809 4.51496,1.64021 4.71012,5.80852 7.15063,28.36124 8.83918,81.68248 0.38852,12.26877 1.20041,26.14495 1.8042,30.83596 1.28571,9.98902 -0.99572,30.3516 -4.41048,39.3651 -3.90265,10.3013 -5.1429,12.3427 -10.83086,17.8284 -4.28063,4.1283 -7.30163,5.7468 -13.12328,7.0304 -4.15942,0.9173 -9.2745,2.1944 -11.36685,2.8381 -6.09237,1.8747 -26.04899,1.5057 -25.3959,-0.4695 z m 49.21055,-148.40182 c -3.86924,-3.71913 -8.91715,-8.49253 -11.21755,-10.60754 l -4.18257,-3.8455 -3.28926,3.09009 c -1.80909,1.69956 -3.28925,3.46226 -3.28925,3.91713 0,1.4161 8.1996,9.64066 15.74602,15.79389 3.96931,3.23651 8.39787,7.35278 9.84126,9.14727 l 2.62434,3.26268 0.40101,-6.99798 c 0.39696,-6.92712 0.32976,-7.06649 -6.634,-13.76004 z m 6.88907,-4.86883 c 0,-1.48465 -0.5564,-5.17512 -1.23643,-8.20105 -0.68004,-3.02593 -1.577,-7.1255 -1.99326,-9.11015 -0.58304,-2.77989 -1.51491,-3.60846 -4.05839,-3.60846 -3.83491,0 -9.77011,3.5249 -9.77011,5.80243 0,1.69137 14.45321,17.65729 16.07406,17.75641 0.54127,0.0331 0.98413,-1.15453 0.98413,-2.63918 z m -61.34387,124.27505 c -2.3455,-0.7694 -4.26455,-1.8673 -4.26455,-2.4398 0,-0.5724 -1.13077,-1.0407 -2.51281,-1.0407 -6.29509,0 -16.53049,-17.46715 -17.30038,-29.52381 -0.36569,-5.72675 1.61541,-20.33862 2.75755,-20.33862 0.53665,0 1.34564,2.80476 1.79776,6.2328 2.07287,15.71675 3.26315,21.09921 5.95541,26.93062 3.44713,7.46641 10.53318,12.66031 18.72186,13.72281 5.43884,0.7057 5.58782,0.634 3.64579,-1.7526 -1.11361,-1.3684 -2.82125,-4.8501 -3.79475,-7.7368 -0.97351,-2.88673 -3.21039,-8.41581 -4.97085,-12.2868 -1.76045,-3.87095 -3.49513,-9.18523 -3.85483,-11.80952 -0.35969,-2.62427 -1.15291,-5.95236 -1.7627,-7.39575 -1.16933,-2.76782 -1.95856,-6.18105 -4.0054,-17.32233 -0.68962,-3.75374 -1.8626,-8.42607 -2.60661,-10.38297 -1.79792,-4.72892 -0.10576,-6.21075 5.45504,-4.77712 l 4.44317,1.14548 0.65609,9.66051 c 0.41174,6.0628 1.26692,9.86184 2.29629,10.2011 0.90212,0.29732 1.64021,-0.057 1.64021,-0.7872 0,-0.73028 0.75753,-2.10806 1.6834,-3.06172 0.92586,-0.95367 3.12642,-3.8006 4.89011,-6.32653 4.34061,-6.21652 10.65953,-13.12168 12.00769,-13.12168 0.60572,0 1.10133,0.82991 1.10133,1.84425 0,2.18542 -5.47144,13.0531 -6.88889,13.68307 -0.54126,0.24057 -0.98412,0.99233 -0.98412,1.67058 0,0.67824 -2.90929,5.62635 -6.46508,10.9958 -6.91993,10.44946 -6.81664,9.62545 -2.71627,21.6687 3.73334,10.9652 6.96201,19.11643 8.03014,20.27293 0.63316,0.6856 1.15121,2.2887 1.15121,3.5624 0,2.3987 4.05892,5.2979 6.90372,4.931 4.83313,-0.6231 18.02748,0.2594 18.02748,1.2059 0,3.7249 -29.45921,5.5182 -39.03701,2.376 z m -27.88358,-96.40349 c 0,-3.47592 0.5857,-9.82353 1.30154,-14.10581 0.71585,-4.28227 1.95545,-11.91929 2.75465,-16.97114 0.7992,-5.05185 1.93139,-10.36613 2.51598,-11.80952 1.62369,-4.00902 2.56627,-6.94698 6.00533,-18.71822 2.44062,-8.35379 3.14733,-13.7797 3.07629,-23.61903 -0.13438,-18.61362 -0.36939,-18.85321 -9.77004,-9.96074 -5.85904,5.54231 -7.95965,6.87746 -8.27614,5.26029 -0.233262,-1.192 1.39055,-4.36878 3.60847,-7.05949 2.21793,-2.69074 4.03259,-5.53295 4.03259,-6.31602 0,-0.78309 1.83948,-3.15808 4.08772,-5.27775 l 4.08772,-3.85396 -0.84334,-16.35939 c -0.59381,-11.51891 -1.45549,-17.29364 -2.91219,-19.51686 -2.52119,-3.84781 -0.62351,-9.39356 3.21435,-9.39356 3.5682,0 5.48743,5.47141 5.48743,15.64374 0,10.05529 1.1148,17.16047 2.69249,17.16047 0.57876,0 3.30971,-2.9372 6.06878,-6.52711 4.67902,-6.08798 8.11714,-7.79617 9.1921,-4.56695 0.25111,0.75436 -0.61443,2.52578 -1.92343,3.93651 -1.309,1.41073 -4.93737,6.33584 -8.06303,10.94469 l -5.68304,8.37974 0.96032,14.58321 c 0.52819,8.02077 1.17704,20.17406 1.4419,27.00732 0.26486,6.83325 1.04569,13.91896 1.73516,15.74602 0.68947,1.82705 1.91873,6.56953 2.73169,10.53884 1.69196,8.2611 2.77253,13.0632 6.61276,29.38747 1.76778,7.51455 2.29416,12.12512 1.47753,12.94173 -1.93906,1.93907 -4.12155,-0.10143 -4.12155,-3.85347 0,-1.84732 -1.1397,-6.97913 -2.53264,-11.40403 -1.39296,-4.42489 -3.10407,-10.40716 -3.80246,-13.29393 -0.69838,-2.88677 -2.26055,-9.382 -3.47147,-14.43385 -2.42756,-10.12762 -4.10337,-12.9781 -5.33614,-9.07656 -0.43719,1.38364 -1.34226,3.54103 -2.01127,4.7942 -0.66901,1.25318 -1.21638,3.43261 -1.21638,4.84319 0,1.4106 -0.50374,2.87604 -1.11942,3.25655 -0.61568,0.38051 -1.82552,5.28678 -2.68852,10.90283 -0.86301,5.61604 -2.13069,13.40946 -2.81709,17.31872 -0.68638,3.90925 -1.24798,9.02762 -1.24798,11.37415 0,5.57079 -1.1569,8.41757 -3.42081,8.41757 -1.30936,0 -1.82786,-1.79271 -1.82786,-6.31985 z m 71.65072,-85.67217 c -0.81641,-2.57177 -1.93116,-73.63985 -1.18642,-75.63749 0.86638,-2.32392 5.57098,-2.03854 6.50465,0.39457 0.42945,1.11913 0.12977,16.32388 -0.66606,33.78833 -1.65917,36.41239 -2.85894,47.10337 -4.65217,41.45459 z M 202.578,822.59811 c -1.47642,-4.51057 -3.35162,-10.56295 -4.16708,-13.44972 -0.81547,-2.88677 -2.67205,-9.03667 -4.12573,-13.66645 -3.66609,-11.67601 -3.54031,-13.24525 0.96541,-12.04406 3.22432,0.85957 3.69679,1.72057 4.43806,8.08758 0.45627,3.91906 1.76118,9.7917 2.8998,13.05027 3.1264,8.94731 6.2966,23.55081 5.42032,24.96866 -1.59973,2.5884 -2.82123,1.02603 -5.43078,-6.94628 z m -52.92525,5.84411 c 0,-0.79833 0.93782,-4.87557 2.08405,-9.06051 3.21465,-11.73683 5.78571,-25.46416 5.78741,-30.89997 10e-4,-5.31112 1.25319,-6.10588 4.50086,-2.85821 2.45913,2.45914 1.79359,9.20825 -2.00498,20.3318 -1.37189,4.01736 -2.49433,8.5587 -2.49433,10.09186 0,1.53317 -0.59047,3.15251 -1.31217,3.59855 -0.72169,0.44603 -1.31216,1.86554 -1.31216,3.15449 0,1.28894 -1.18096,3.41227 -2.62434,4.71852 -1.44339,1.30625 -2.62434,1.72181 -2.62434,0.92347 z"
       id="path3304"
       inkscape:connector-curvature="0" />
  </g>
</svg>
